<?xml version="1.0" encoding="utf-8"?>
<!-- Generator: Adobe Illustrator 27.4.1, SVG Export Plug-In . SVG Version: 6.00 Build 0)  -->
<svg version="1.1" id="Camada_1" xmlns="http://www.w3.org/2000/svg" xmlns:xlink="http://www.w3.org/1999/xlink" x="0px" y="0px"
	 viewBox="0 0 4867.8 771.3" style="enable-background:new 0 0 4867.8 771.3;" xml:space="preserve">
<style type="text/css">
	.st0{fill:#fff;}
</style>
<g>
	<g>
		<path class="st0" d="M608.8,47.2l-64.5,530.5L314,718.7l-209.7-141L39.9,47.2h538 M599.7,18.2H10.8l64.5,575.4L314,753.1
			l259.3-159.5l64.5-575.4H599.7z"/>
		<g>
			<g>
				<polygon class="st0" points="233.3,257.6 233.3,222.7 119.1,330 233.3,437.2 233.3,402.3 156,330 				"/>
			</g>
			<g>
				<polygon class="st0" points="137.6,312.6 119.1,330 233.3,437.2 233.3,402.3 				"/>
			</g>
		</g>
		<g>
			<g>
				<polygon class="st0" points="415.3,257.6 415.3,222.7 529.5,330 415.3,437.2 415.3,402.3 492.6,330 				"/>
			</g>
			<g>
				<polygon class="st0" points="511,312.6 529.5,330 415.3,437.2 415.3,402.3 				"/>
			</g>
		</g>
		<g>
			<polygon class="st0" points="360.3,241.8 407.6,222.7 289.7,418 241.9,437.2 			"/>
		</g>
	</g>
	<g>
		<path class="st0" d="M2508.9,545.7c-48.2,0-88.4-13.6-120.3-40.8c-34.1-28.9-51.1-66.6-51.1-113.3v-1.1
			c0-47.1,16.8-86.5,50.5-118.2c33-31.2,73.4-46.7,121-46.7h135c36.4,0,69.4,10.5,99.2,31.6c29.7,21.2,50.6,48.9,62.7,83.2
			l-26.6,9.2c-10-28.7-27.5-51.8-52.4-69.4c-24.9-17.6-52.6-26.4-83-26.4h-135c-40.2,0-74.2,13.2-101.9,39.5
			c-27.6,26.5-41.4,58.9-41.4,97.2v1.1c0,37.1,13.3,67.4,40,90.8c26.7,23.4,61.1,35.2,103.3,35.2h135c30.4,0,58.1-8.8,83-26.4
			c24.9-17.6,42.4-40.7,52.4-69.4l26.6,9.2c-12.1,34.3-33,62-62.7,83.1c-29.8,21.1-62.9,31.6-99.2,31.6H2508.9z"/>
		<path class="st0" d="M3659.6,225.6c44.1,0,81.7,15.6,112.8,46.7c31.2,31.2,46.7,68.8,46.7,112.8v0.9c0,44.1-15.6,81.7-46.7,112.8
			c-31.2,31.2-68.8,46.7-112.8,46.7h-296.5V225.6H3659.6z M3391.5,254.1v263.2h268.1c36.2,0,67.1-12.8,92.7-38.4
			c25.6-25.6,38.5-56.5,38.5-92.7v-0.9c0-36.2-12.8-67.1-38.5-92.7c-25.6-25.6-56.5-38.4-92.7-38.4H3391.5z"/>
		<path class="st0" d="M4330,225.6v28h-432.5V311h357.9v27.8h-385.7V225.6H4330z M4257,421.6v28h-357.9v68.3h432.5v27.8h-460.3
			V421.6H4257z"/>
		<path class="st0" d="M1812.9,225.6v292h362.5v28.1h-390.6V225.6H1812.9z"/>
		<path class="st0" d="M1734.2,335v210.7h-26.4V376.6l-198.8,93l-198.8-93v169.1h-26.4V335L1509,440.4L1734.2,335z M1726.6,249.5
			L1509,351.4l-217.6-101.9l11.1-23.9l206.5,96.6l206.3-96.6L1726.6,249.5z"/>
		<path class="st0" d="M3152.9,225.6c44.1,0,81.7,15.6,112.8,46.7c31.2,31.2,46.7,68.8,46.7,112.8v0.9c0,44.1-15.6,81.7-46.7,112.8
			c-31.1,31.2-68.8,46.7-112.8,46.7H3016c-44.1,0-81.7-15.6-112.8-46.7c-31.2-31.2-46.7-68.8-46.7-112.8v-0.9
			c0-44.1,15.6-81.7,46.7-112.8c31.1-31.1,68.8-46.7,112.8-46.7H3152.9z M3016,254.1c-36.2,0-67,12.8-92.7,38.4
			c-25.6,25.6-38.4,56.5-38.4,92.7v0.9c0,36.2,12.8,67.1,38.4,92.7c25.6,25.6,56.5,38.4,92.7,38.4h136.9c36.2,0,67.1-12.8,92.7-38.4
			c25.6-25.6,38.4-56.5,38.4-92.7v-0.9c0-36.2-12.8-67.1-38.4-92.7c-25.6-25.6-56.5-38.4-92.7-38.4H3016z"/>
		<path class="st0" d="M4446.8,545.7c-17.8,0-33-6.4-45.6-19.1c-12.7-12.6-19.1-27.8-19.1-45.6v-20.3h27.8V481
			c0,10.1,3.7,18.7,10.9,25.9c7.2,7.3,15.8,10.9,25.9,10.9H4792c10.2,0,18.9-3.6,26.1-10.9c7.2-7.2,10.8-15.8,10.8-25.9v-6.3
			c0-8.6-2.7-16.4-8.1-23.3c-5.5-6.8-12.5-11-20.9-12.8L4433.2,360c-14.8-3.2-27-10.8-36.6-22.7c-9.7-12-14.5-25.6-14.5-40.8v-6.2
			c0-17.8,6.4-33,19.1-45.6c12.6-12.7,27.8-19.1,45.6-19.1H4792c17.9,0,33.2,6.4,45.8,19.1c12.7,12.6,19.1,27.8,19.1,45.6v18.1h-28
			v-18.1c0-10.1-3.6-18.8-10.8-26c-7.2-7.3-15.9-10.9-26.1-10.9h-345.3c-10.1,0-18.7,3.6-25.9,10.9c-7.3,7.2-10.9,15.8-10.9,26v6.2
			c0,8.7,2.8,16.4,8.3,23.3c5.5,6.8,12.5,11,20.9,12.8l366.5,78.6c14.8,3.2,27,10.8,36.7,22.7c9.7,12,14.5,25.6,14.5,40.8v6.3
			c0,17.8-6.4,33-19.1,45.6c-12.6,12.7-27.9,19.1-45.8,19.1H4446.8z"/>
		<path class="st0" d="M1233.2,225.6v28.3h-213v291.8h-28.5V253.9h-213v-28.3H1233.2z"/>
	</g>
</g>
</svg>
